<mxfile host="app.diagrams.net" agent="Mozilla/5.0 (Windows NT 10.0; Win64; x64) AppleWebKit/537.36 (KHTML, like Gecko) Chrome/127.0.0.0 Safari/537.36" version="24.7.7">
  <diagram name="Page-1" id="0783ab3e-0a74-02c8-0abd-f7b4e66b4bec">
    <mxGraphModel dx="2349" dy="1115" grid="1" gridSize="10" guides="1" tooltips="1" connect="1" arrows="1" fold="1" page="1" pageScale="2" pageWidth="850" pageHeight="1100" background="none" math="0" shadow="0">
      <root>
        <mxCell id="0" />
        <mxCell id="1" parent="0" />
        <mxCell id="1c1d494c118603dd-1" value="" style="swimlane;html=1;childLayout=stackLayout;startSize=0;rounded=0;shadow=0;comic=0;labelBackgroundColor=none;strokeWidth=1;fontFamily=Verdana;fontSize=12;align=center;" parent="1" vertex="1">
          <mxGeometry x="80" y="60" width="890" height="1590" as="geometry" />
        </mxCell>
        <mxCell id="1c1d494c118603dd-2" value="CLIENT" style="swimlane;html=1;startSize=20;" parent="1c1d494c118603dd-1" vertex="1">
          <mxGeometry width="330" height="1590" as="geometry" />
        </mxCell>
        <mxCell id="60571a20871a0731-4" value="" style="ellipse;whiteSpace=wrap;html=1;rounded=0;shadow=0;comic=0;labelBackgroundColor=none;strokeWidth=1;fillColor=#000000;fontFamily=Verdana;fontSize=12;align=center;" parent="1c1d494c118603dd-2" vertex="1">
          <mxGeometry x="197" y="60" width="40" height="40" as="geometry" />
        </mxCell>
        <mxCell id="gRa7N4M2TpN5TnLLKJT--1" value="Open Application" style="rounded=1;whiteSpace=wrap;html=1;" vertex="1" parent="1c1d494c118603dd-2">
          <mxGeometry x="157" y="140" width="120" height="60" as="geometry" />
        </mxCell>
        <mxCell id="gRa7N4M2TpN5TnLLKJT--3" value="Display Registration Form" style="rounded=1;whiteSpace=wrap;html=1;" vertex="1" parent="1c1d494c118603dd-2">
          <mxGeometry x="157" y="240" width="120" height="60" as="geometry" />
        </mxCell>
        <mxCell id="gRa7N4M2TpN5TnLLKJT--4" value="FIll the form (full name, age, gender, academic background, qualificaitons, username, password, email, phone number)" style="rounded=1;whiteSpace=wrap;html=1;" vertex="1" parent="1c1d494c118603dd-2">
          <mxGeometry x="157" y="340" width="120" height="120" as="geometry" />
        </mxCell>
        <mxCell id="gRa7N4M2TpN5TnLLKJT--5" value="Submit the Registration form" style="rounded=1;whiteSpace=wrap;html=1;" vertex="1" parent="1c1d494c118603dd-2">
          <mxGeometry x="157" y="500" width="120" height="60" as="geometry" />
        </mxCell>
        <mxCell id="60571a20871a0731-5" value="" style="shape=mxgraph.bpmn.shape;html=1;verticalLabelPosition=bottom;labelBackgroundColor=#ffffff;verticalAlign=top;perimeter=ellipsePerimeter;outline=end;symbol=terminate;rounded=0;shadow=0;comic=0;strokeWidth=1;fontFamily=Verdana;fontSize=12;align=center;" parent="1c1d494c118603dd-2" vertex="1">
          <mxGeometry x="197" y="1540" width="40" height="40" as="geometry" />
        </mxCell>
        <mxCell id="gRa7N4M2TpN5TnLLKJT--10" value="Display error message" style="rounded=1;whiteSpace=wrap;html=1;" vertex="1" parent="1c1d494c118603dd-2">
          <mxGeometry x="157" y="610" width="120" height="60" as="geometry" />
        </mxCell>
        <mxCell id="gRa7N4M2TpN5TnLLKJT--13" value="Display error message" style="rounded=1;whiteSpace=wrap;html=1;" vertex="1" parent="1c1d494c118603dd-2">
          <mxGeometry x="163" y="830" width="120" height="60" as="geometry" />
        </mxCell>
        <mxCell id="gRa7N4M2TpN5TnLLKJT--21" value="Display Confirmation message" style="rounded=1;whiteSpace=wrap;html=1;" vertex="1" parent="1c1d494c118603dd-2">
          <mxGeometry x="157" y="1300" width="120" height="60" as="geometry" />
        </mxCell>
        <mxCell id="gRa7N4M2TpN5TnLLKJT--22" value="Redirect to Login Page" style="rounded=1;whiteSpace=wrap;html=1;" vertex="1" parent="1c1d494c118603dd-2">
          <mxGeometry x="157" y="1420" width="120" height="60" as="geometry" />
        </mxCell>
        <mxCell id="gRa7N4M2TpN5TnLLKJT--23" value="" style="endArrow=classic;html=1;rounded=0;exitX=0.5;exitY=1;exitDx=0;exitDy=0;entryX=0.5;entryY=0;entryDx=0;entryDy=0;" edge="1" parent="1c1d494c118603dd-2" source="60571a20871a0731-4" target="gRa7N4M2TpN5TnLLKJT--1">
          <mxGeometry width="50" height="50" relative="1" as="geometry">
            <mxPoint x="266" y="130" as="sourcePoint" />
            <mxPoint x="316" y="80" as="targetPoint" />
          </mxGeometry>
        </mxCell>
        <mxCell id="gRa7N4M2TpN5TnLLKJT--26" value="" style="endArrow=classic;html=1;rounded=0;exitX=0.5;exitY=1;exitDx=0;exitDy=0;entryX=0.5;entryY=0;entryDx=0;entryDy=0;" edge="1" parent="1c1d494c118603dd-2">
          <mxGeometry width="50" height="50" relative="1" as="geometry">
            <mxPoint x="215.69" y="300" as="sourcePoint" />
            <mxPoint x="215.69" y="340" as="targetPoint" />
          </mxGeometry>
        </mxCell>
        <mxCell id="gRa7N4M2TpN5TnLLKJT--27" value="" style="endArrow=classic;html=1;rounded=0;exitX=0.5;exitY=1;exitDx=0;exitDy=0;entryX=0.5;entryY=0;entryDx=0;entryDy=0;" edge="1" parent="1c1d494c118603dd-2">
          <mxGeometry width="50" height="50" relative="1" as="geometry">
            <mxPoint x="215.69" y="460" as="sourcePoint" />
            <mxPoint x="215.69" y="500" as="targetPoint" />
          </mxGeometry>
        </mxCell>
        <mxCell id="gRa7N4M2TpN5TnLLKJT--43" value="Display Error Message" style="rounded=1;whiteSpace=wrap;html=1;" vertex="1" parent="1c1d494c118603dd-2">
          <mxGeometry x="157" y="1190" width="120" height="60" as="geometry" />
        </mxCell>
        <mxCell id="gRa7N4M2TpN5TnLLKJT--54" value="" style="endArrow=classic;html=1;rounded=0;exitX=0.5;exitY=1;exitDx=0;exitDy=0;entryX=0.5;entryY=0;entryDx=0;entryDy=0;" edge="1" parent="1c1d494c118603dd-2" source="gRa7N4M2TpN5TnLLKJT--21" target="gRa7N4M2TpN5TnLLKJT--22">
          <mxGeometry width="50" height="50" relative="1" as="geometry">
            <mxPoint x="326" y="1400" as="sourcePoint" />
            <mxPoint x="376" y="1350" as="targetPoint" />
          </mxGeometry>
        </mxCell>
        <mxCell id="gRa7N4M2TpN5TnLLKJT--55" value="" style="endArrow=classic;html=1;rounded=0;exitX=0.5;exitY=1;exitDx=0;exitDy=0;entryX=0.5;entryY=0;entryDx=0;entryDy=0;" edge="1" parent="1c1d494c118603dd-2" source="gRa7N4M2TpN5TnLLKJT--22" target="60571a20871a0731-5">
          <mxGeometry width="50" height="50" relative="1" as="geometry">
            <mxPoint x="396" y="1570" as="sourcePoint" />
            <mxPoint x="446" y="1520" as="targetPoint" />
          </mxGeometry>
        </mxCell>
        <mxCell id="gRa7N4M2TpN5TnLLKJT--56" value="" style="edgeStyle=elbowEdgeStyle;elbow=horizontal;endArrow=classic;html=1;curved=0;rounded=0;endSize=8;startSize=8;entryX=0.036;entryY=0.972;entryDx=0;entryDy=0;entryPerimeter=0;" edge="1" parent="1c1d494c118603dd-2" target="gRa7N4M2TpN5TnLLKJT--3">
          <mxGeometry width="50" height="50" relative="1" as="geometry">
            <mxPoint x="156" y="650" as="sourcePoint" />
            <mxPoint x="156" y="300" as="targetPoint" />
            <Array as="points">
              <mxPoint x="98" y="480" />
            </Array>
          </mxGeometry>
        </mxCell>
        <mxCell id="gRa7N4M2TpN5TnLLKJT--59" value="" style="edgeStyle=elbowEdgeStyle;elbow=horizontal;endArrow=classic;html=1;curved=0;rounded=0;endSize=8;startSize=8;exitX=0;exitY=0.5;exitDx=0;exitDy=0;entryX=0.001;entryY=0.662;entryDx=0;entryDy=0;entryPerimeter=0;" edge="1" parent="1c1d494c118603dd-2" source="gRa7N4M2TpN5TnLLKJT--13" target="gRa7N4M2TpN5TnLLKJT--3">
          <mxGeometry width="50" height="50" relative="1" as="geometry">
            <mxPoint x="232" y="780" as="sourcePoint" />
            <mxPoint x="282" y="730" as="targetPoint" />
            <Array as="points">
              <mxPoint x="58" y="570" />
            </Array>
          </mxGeometry>
        </mxCell>
        <mxCell id="gRa7N4M2TpN5TnLLKJT--60" value="" style="edgeStyle=elbowEdgeStyle;elbow=horizontal;endArrow=classic;html=1;curved=0;rounded=0;endSize=8;startSize=8;exitX=0;exitY=0.5;exitDx=0;exitDy=0;entryX=-0.007;entryY=0.336;entryDx=0;entryDy=0;entryPerimeter=0;" edge="1" parent="1c1d494c118603dd-2" source="gRa7N4M2TpN5TnLLKJT--43" target="gRa7N4M2TpN5TnLLKJT--3">
          <mxGeometry width="50" height="50" relative="1" as="geometry">
            <mxPoint x="-10" y="1190" as="sourcePoint" />
            <mxPoint x="40" y="1140" as="targetPoint" />
            <Array as="points">
              <mxPoint x="20" y="1190" />
            </Array>
          </mxGeometry>
        </mxCell>
        <mxCell id="1c1d494c118603dd-3" value="SYSTEM" style="swimlane;html=1;startSize=20;" parent="1c1d494c118603dd-1" vertex="1">
          <mxGeometry x="330" width="265" height="1590" as="geometry" />
        </mxCell>
        <mxCell id="gRa7N4M2TpN5TnLLKJT--2" value="Registration Page View" style="rounded=1;whiteSpace=wrap;html=1;" vertex="1" parent="1c1d494c118603dd-3">
          <mxGeometry x="72.5" y="140" width="120" height="60" as="geometry" />
        </mxCell>
        <mxCell id="gRa7N4M2TpN5TnLLKJT--6" value="Validate Username" style="rounded=1;whiteSpace=wrap;html=1;" vertex="1" parent="1c1d494c118603dd-3">
          <mxGeometry x="75" y="500" width="120" height="60" as="geometry" />
        </mxCell>
        <mxCell id="gRa7N4M2TpN5TnLLKJT--9" value="if exists" style="rhombus;whiteSpace=wrap;html=1;" vertex="1" parent="1c1d494c118603dd-3">
          <mxGeometry x="89.5" y="600" width="80" height="80" as="geometry" />
        </mxCell>
        <mxCell id="gRa7N4M2TpN5TnLLKJT--11" value="Validate Password&lt;div&gt;(strength of the password, should be between 8-15 characters long)&lt;/div&gt;" style="rounded=1;whiteSpace=wrap;html=1;" vertex="1" parent="1c1d494c118603dd-3">
          <mxGeometry x="75" y="720" width="120" height="70" as="geometry" />
        </mxCell>
        <mxCell id="gRa7N4M2TpN5TnLLKJT--12" value="if correct" style="rhombus;whiteSpace=wrap;html=1;" vertex="1" parent="1c1d494c118603dd-3">
          <mxGeometry x="89.5" y="820" width="80" height="80" as="geometry" />
        </mxCell>
        <mxCell id="gRa7N4M2TpN5TnLLKJT--14" value="Create New &#39;Client&#39; account" style="rounded=1;whiteSpace=wrap;html=1;" vertex="1" parent="1c1d494c118603dd-3">
          <mxGeometry x="72.5" y="940" width="120" height="60" as="geometry" />
        </mxCell>
        <mxCell id="gRa7N4M2TpN5TnLLKJT--15" value="Add new Client details in the database" style="rounded=1;whiteSpace=wrap;html=1;" vertex="1" parent="1c1d494c118603dd-3">
          <mxGeometry x="70" y="1050" width="120" height="60" as="geometry" />
        </mxCell>
        <mxCell id="gRa7N4M2TpN5TnLLKJT--18" value="Return Error Message" style="rounded=1;whiteSpace=wrap;html=1;" vertex="1" parent="1c1d494c118603dd-3">
          <mxGeometry x="75" y="1190" width="120" height="60" as="geometry" />
        </mxCell>
        <mxCell id="gRa7N4M2TpN5TnLLKJT--20" value="Confirm Account Creation" style="rounded=1;whiteSpace=wrap;html=1;" vertex="1" parent="1c1d494c118603dd-3">
          <mxGeometry x="70" y="1300" width="120" height="60" as="geometry" />
        </mxCell>
        <mxCell id="gRa7N4M2TpN5TnLLKJT--29" value="" style="endArrow=classic;html=1;rounded=0;exitX=0.458;exitY=1.009;exitDx=0;exitDy=0;entryX=0.5;entryY=0;entryDx=0;entryDy=0;exitPerimeter=0;" edge="1" parent="1c1d494c118603dd-3" source="gRa7N4M2TpN5TnLLKJT--6" target="gRa7N4M2TpN5TnLLKJT--9">
          <mxGeometry width="50" height="50" relative="1" as="geometry">
            <mxPoint x="175" y="610" as="sourcePoint" />
            <mxPoint x="225" y="560" as="targetPoint" />
          </mxGeometry>
        </mxCell>
        <mxCell id="gRa7N4M2TpN5TnLLKJT--31" value="YES" style="text;html=1;align=center;verticalAlign=middle;whiteSpace=wrap;rounded=0;" vertex="1" parent="1c1d494c118603dd-3">
          <mxGeometry y="610" width="60" height="30" as="geometry" />
        </mxCell>
        <mxCell id="gRa7N4M2TpN5TnLLKJT--32" value="" style="endArrow=classic;html=1;rounded=0;exitX=0.5;exitY=1;exitDx=0;exitDy=0;entryX=0.458;entryY=0;entryDx=0;entryDy=0;entryPerimeter=0;" edge="1" parent="1c1d494c118603dd-3" source="gRa7N4M2TpN5TnLLKJT--9" target="gRa7N4M2TpN5TnLLKJT--11">
          <mxGeometry width="50" height="50" relative="1" as="geometry">
            <mxPoint x="129.81" y="681" as="sourcePoint" />
            <mxPoint x="130" y="710" as="targetPoint" />
          </mxGeometry>
        </mxCell>
        <mxCell id="gRa7N4M2TpN5TnLLKJT--33" value="NO" style="text;html=1;align=center;verticalAlign=middle;whiteSpace=wrap;rounded=0;" vertex="1" parent="1c1d494c118603dd-3">
          <mxGeometry x="130" y="680" width="30" height="30" as="geometry" />
        </mxCell>
        <mxCell id="gRa7N4M2TpN5TnLLKJT--34" value="" style="endArrow=classic;html=1;rounded=0;exitX=0.459;exitY=1.007;exitDx=0;exitDy=0;exitPerimeter=0;entryX=0.5;entryY=0;entryDx=0;entryDy=0;" edge="1" parent="1c1d494c118603dd-3" source="gRa7N4M2TpN5TnLLKJT--11" target="gRa7N4M2TpN5TnLLKJT--12">
          <mxGeometry width="50" height="50" relative="1" as="geometry">
            <mxPoint x="-20" y="920" as="sourcePoint" />
            <mxPoint x="30" y="870" as="targetPoint" />
          </mxGeometry>
        </mxCell>
        <mxCell id="gRa7N4M2TpN5TnLLKJT--36" value="NO" style="text;html=1;align=center;verticalAlign=middle;whiteSpace=wrap;rounded=0;" vertex="1" parent="1c1d494c118603dd-3">
          <mxGeometry y="830" width="60" height="30" as="geometry" />
        </mxCell>
        <mxCell id="gRa7N4M2TpN5TnLLKJT--37" value="" style="endArrow=classic;html=1;rounded=0;exitX=0.5;exitY=1;exitDx=0;exitDy=0;entryX=0.483;entryY=-0.002;entryDx=0;entryDy=0;entryPerimeter=0;" edge="1" parent="1c1d494c118603dd-3" source="gRa7N4M2TpN5TnLLKJT--12" target="gRa7N4M2TpN5TnLLKJT--14">
          <mxGeometry width="50" height="50" relative="1" as="geometry">
            <mxPoint x="-70" y="950" as="sourcePoint" />
            <mxPoint x="-20" y="900" as="targetPoint" />
          </mxGeometry>
        </mxCell>
        <mxCell id="gRa7N4M2TpN5TnLLKJT--38" value="YES" style="text;html=1;align=center;verticalAlign=middle;whiteSpace=wrap;rounded=0;" vertex="1" parent="1c1d494c118603dd-3">
          <mxGeometry x="130" y="900" width="30" height="30" as="geometry" />
        </mxCell>
        <mxCell id="gRa7N4M2TpN5TnLLKJT--42" value="" style="endArrow=classic;html=1;rounded=0;exitX=0.479;exitY=1;exitDx=0;exitDy=0;entryX=0.5;entryY=0;entryDx=0;entryDy=0;exitPerimeter=0;" edge="1" parent="1c1d494c118603dd-3" source="gRa7N4M2TpN5TnLLKJT--14" target="gRa7N4M2TpN5TnLLKJT--15">
          <mxGeometry width="50" height="50" relative="1" as="geometry">
            <mxPoint x="210" y="1030" as="sourcePoint" />
            <mxPoint x="260" y="980" as="targetPoint" />
          </mxGeometry>
        </mxCell>
        <mxCell id="gRa7N4M2TpN5TnLLKJT--24" value="" style="endArrow=classic;html=1;rounded=0;exitX=1;exitY=0.5;exitDx=0;exitDy=0;entryX=0;entryY=0.5;entryDx=0;entryDy=0;" edge="1" parent="1c1d494c118603dd-1" source="gRa7N4M2TpN5TnLLKJT--1" target="gRa7N4M2TpN5TnLLKJT--2">
          <mxGeometry width="50" height="50" relative="1" as="geometry">
            <mxPoint x="230" y="160" as="sourcePoint" />
            <mxPoint x="230" y="200" as="targetPoint" />
          </mxGeometry>
        </mxCell>
        <mxCell id="gRa7N4M2TpN5TnLLKJT--25" value="" style="edgeStyle=segmentEdgeStyle;endArrow=classic;html=1;curved=0;rounded=0;endSize=8;startSize=8;entryX=1;entryY=0.5;entryDx=0;entryDy=0;exitX=0.5;exitY=1;exitDx=0;exitDy=0;" edge="1" parent="1c1d494c118603dd-1" source="gRa7N4M2TpN5TnLLKJT--2" target="gRa7N4M2TpN5TnLLKJT--3">
          <mxGeometry width="50" height="50" relative="1" as="geometry">
            <mxPoint x="345" y="250" as="sourcePoint" />
            <mxPoint x="390" y="310" as="targetPoint" />
            <Array as="points">
              <mxPoint x="462" y="270" />
            </Array>
          </mxGeometry>
        </mxCell>
        <mxCell id="gRa7N4M2TpN5TnLLKJT--28" value="" style="endArrow=classic;html=1;rounded=0;exitX=1;exitY=0.5;exitDx=0;exitDy=0;entryX=0;entryY=0.5;entryDx=0;entryDy=0;" edge="1" parent="1c1d494c118603dd-1" source="gRa7N4M2TpN5TnLLKJT--5" target="gRa7N4M2TpN5TnLLKJT--6">
          <mxGeometry width="50" height="50" relative="1" as="geometry">
            <mxPoint x="230" y="560" as="sourcePoint" />
            <mxPoint x="280" y="510" as="targetPoint" />
          </mxGeometry>
        </mxCell>
        <mxCell id="1c1d494c118603dd-4" value="DATABASE" style="swimlane;html=1;startSize=20;" parent="1c1d494c118603dd-1" vertex="1">
          <mxGeometry x="595" width="295" height="1590" as="geometry" />
        </mxCell>
        <mxCell id="gRa7N4M2TpN5TnLLKJT--7" value="Check if username already exists" style="rounded=1;whiteSpace=wrap;html=1;" vertex="1" parent="1c1d494c118603dd-4">
          <mxGeometry x="65" y="500" width="120" height="60" as="geometry" />
        </mxCell>
        <mxCell id="gRa7N4M2TpN5TnLLKJT--8" value="Return the result&lt;div&gt;(exists or not?)&lt;/div&gt;" style="rounded=1;whiteSpace=wrap;html=1;" vertex="1" parent="1c1d494c118603dd-4">
          <mxGeometry x="65" y="610" width="120" height="60" as="geometry" />
        </mxCell>
        <mxCell id="gRa7N4M2TpN5TnLLKJT--16" value="Update Database" style="rounded=1;whiteSpace=wrap;html=1;" vertex="1" parent="1c1d494c118603dd-4">
          <mxGeometry x="65" y="1050" width="120" height="60" as="geometry" />
        </mxCell>
        <mxCell id="gRa7N4M2TpN5TnLLKJT--17" value="if successful" style="rhombus;whiteSpace=wrap;html=1;" vertex="1" parent="1c1d494c118603dd-4">
          <mxGeometry x="85" y="1180" width="80" height="80" as="geometry" />
        </mxCell>
        <mxCell id="gRa7N4M2TpN5TnLLKJT--19" value="Return Confirmation message" style="rounded=1;whiteSpace=wrap;html=1;" vertex="1" parent="1c1d494c118603dd-4">
          <mxGeometry x="65" y="1300" width="120" height="60" as="geometry" />
        </mxCell>
        <mxCell id="gRa7N4M2TpN5TnLLKJT--40" value="" style="endArrow=classic;html=1;rounded=0;entryX=0.5;entryY=0;entryDx=0;entryDy=0;exitX=0.5;exitY=1;exitDx=0;exitDy=0;" edge="1" parent="1c1d494c118603dd-4" source="gRa7N4M2TpN5TnLLKJT--7" target="gRa7N4M2TpN5TnLLKJT--8">
          <mxGeometry width="50" height="50" relative="1" as="geometry">
            <mxPoint x="25" y="620" as="sourcePoint" />
            <mxPoint x="75" y="570" as="targetPoint" />
          </mxGeometry>
        </mxCell>
        <mxCell id="gRa7N4M2TpN5TnLLKJT--45" value="" style="endArrow=classic;html=1;rounded=0;exitX=0.5;exitY=1;exitDx=0;exitDy=0;entryX=0.5;entryY=0;entryDx=0;entryDy=0;" edge="1" parent="1c1d494c118603dd-4" source="gRa7N4M2TpN5TnLLKJT--16" target="gRa7N4M2TpN5TnLLKJT--17">
          <mxGeometry width="50" height="50" relative="1" as="geometry">
            <mxPoint x="175" y="1160" as="sourcePoint" />
            <mxPoint x="225" y="1110" as="targetPoint" />
          </mxGeometry>
        </mxCell>
        <mxCell id="gRa7N4M2TpN5TnLLKJT--47" value="NO" style="text;html=1;align=center;verticalAlign=middle;whiteSpace=wrap;rounded=0;" vertex="1" parent="1c1d494c118603dd-4">
          <mxGeometry y="1190" width="60" height="30" as="geometry" />
        </mxCell>
        <mxCell id="gRa7N4M2TpN5TnLLKJT--48" value="" style="endArrow=classic;html=1;rounded=0;exitX=0.5;exitY=1;exitDx=0;exitDy=0;entryX=0.5;entryY=0;entryDx=0;entryDy=0;" edge="1" parent="1c1d494c118603dd-4" source="gRa7N4M2TpN5TnLLKJT--17" target="gRa7N4M2TpN5TnLLKJT--19">
          <mxGeometry width="50" height="50" relative="1" as="geometry">
            <mxPoint x="205" y="1300" as="sourcePoint" />
            <mxPoint x="255" y="1250" as="targetPoint" />
          </mxGeometry>
        </mxCell>
        <mxCell id="gRa7N4M2TpN5TnLLKJT--49" value="YES" style="text;html=1;align=center;verticalAlign=middle;whiteSpace=wrap;rounded=0;" vertex="1" parent="1c1d494c118603dd-4">
          <mxGeometry x="125" y="1260" width="45" height="30" as="geometry" />
        </mxCell>
        <mxCell id="gRa7N4M2TpN5TnLLKJT--30" value="" style="endArrow=classic;html=1;rounded=0;entryX=1;entryY=0.5;entryDx=0;entryDy=0;exitX=0;exitY=0.5;exitDx=0;exitDy=0;" edge="1" parent="1c1d494c118603dd-1" source="gRa7N4M2TpN5TnLLKJT--9" target="gRa7N4M2TpN5TnLLKJT--10">
          <mxGeometry width="50" height="50" relative="1" as="geometry">
            <mxPoint x="260" y="730" as="sourcePoint" />
            <mxPoint x="310" y="680" as="targetPoint" />
          </mxGeometry>
        </mxCell>
        <mxCell id="gRa7N4M2TpN5TnLLKJT--35" value="" style="endArrow=classic;html=1;rounded=0;exitX=0;exitY=0.5;exitDx=0;exitDy=0;entryX=1;entryY=0.5;entryDx=0;entryDy=0;" edge="1" parent="1c1d494c118603dd-1" source="gRa7N4M2TpN5TnLLKJT--12" target="gRa7N4M2TpN5TnLLKJT--13">
          <mxGeometry width="50" height="50" relative="1" as="geometry">
            <mxPoint x="180" y="930" as="sourcePoint" />
            <mxPoint x="230" y="880" as="targetPoint" />
          </mxGeometry>
        </mxCell>
        <mxCell id="gRa7N4M2TpN5TnLLKJT--39" value="" style="endArrow=classic;html=1;rounded=0;exitX=1;exitY=0.5;exitDx=0;exitDy=0;entryX=0;entryY=0.5;entryDx=0;entryDy=0;" edge="1" parent="1c1d494c118603dd-1" source="gRa7N4M2TpN5TnLLKJT--6" target="gRa7N4M2TpN5TnLLKJT--7">
          <mxGeometry width="50" height="50" relative="1" as="geometry">
            <mxPoint x="490" y="580" as="sourcePoint" />
            <mxPoint x="540" y="530" as="targetPoint" />
          </mxGeometry>
        </mxCell>
        <mxCell id="gRa7N4M2TpN5TnLLKJT--41" value="" style="endArrow=classic;html=1;rounded=0;entryX=1;entryY=0.5;entryDx=0;entryDy=0;exitX=0;exitY=0.5;exitDx=0;exitDy=0;" edge="1" parent="1c1d494c118603dd-1" source="gRa7N4M2TpN5TnLLKJT--8" target="gRa7N4M2TpN5TnLLKJT--9">
          <mxGeometry width="50" height="50" relative="1" as="geometry">
            <mxPoint x="510" y="670" as="sourcePoint" />
            <mxPoint x="560" y="620" as="targetPoint" />
          </mxGeometry>
        </mxCell>
        <mxCell id="gRa7N4M2TpN5TnLLKJT--44" value="" style="endArrow=classic;html=1;rounded=0;exitX=1;exitY=0.5;exitDx=0;exitDy=0;entryX=0;entryY=0.5;entryDx=0;entryDy=0;" edge="1" parent="1c1d494c118603dd-1" source="gRa7N4M2TpN5TnLLKJT--15" target="gRa7N4M2TpN5TnLLKJT--16">
          <mxGeometry width="50" height="50" relative="1" as="geometry">
            <mxPoint x="500" y="1090" as="sourcePoint" />
            <mxPoint x="550" y="1040" as="targetPoint" />
          </mxGeometry>
        </mxCell>
        <mxCell id="gRa7N4M2TpN5TnLLKJT--46" value="" style="endArrow=classic;html=1;rounded=0;exitX=0;exitY=0.5;exitDx=0;exitDy=0;entryX=1;entryY=0.5;entryDx=0;entryDy=0;" edge="1" parent="1c1d494c118603dd-1" source="gRa7N4M2TpN5TnLLKJT--17" target="gRa7N4M2TpN5TnLLKJT--18">
          <mxGeometry width="50" height="50" relative="1" as="geometry">
            <mxPoint x="500" y="1240" as="sourcePoint" />
            <mxPoint x="550" y="1190" as="targetPoint" />
          </mxGeometry>
        </mxCell>
        <mxCell id="gRa7N4M2TpN5TnLLKJT--51" value="" style="endArrow=classic;html=1;rounded=0;exitX=0;exitY=0.5;exitDx=0;exitDy=0;entryX=1;entryY=0.5;entryDx=0;entryDy=0;" edge="1" parent="1c1d494c118603dd-1" source="gRa7N4M2TpN5TnLLKJT--19" target="gRa7N4M2TpN5TnLLKJT--20">
          <mxGeometry width="50" height="50" relative="1" as="geometry">
            <mxPoint x="490" y="1355" as="sourcePoint" />
            <mxPoint x="540" y="1305" as="targetPoint" />
          </mxGeometry>
        </mxCell>
        <mxCell id="gRa7N4M2TpN5TnLLKJT--52" value="" style="endArrow=classic;html=1;rounded=0;entryX=1;entryY=0.5;entryDx=0;entryDy=0;exitX=0;exitY=0.5;exitDx=0;exitDy=0;" edge="1" parent="1c1d494c118603dd-1" source="gRa7N4M2TpN5TnLLKJT--18" target="gRa7N4M2TpN5TnLLKJT--43">
          <mxGeometry width="50" height="50" relative="1" as="geometry">
            <mxPoint x="320" y="1210" as="sourcePoint" />
            <mxPoint x="322.5" y="1160" as="targetPoint" />
          </mxGeometry>
        </mxCell>
        <mxCell id="gRa7N4M2TpN5TnLLKJT--53" value="" style="endArrow=classic;html=1;rounded=0;exitX=0;exitY=0.5;exitDx=0;exitDy=0;entryX=1;entryY=0.5;entryDx=0;entryDy=0;" edge="1" parent="1c1d494c118603dd-1" source="gRa7N4M2TpN5TnLLKJT--20" target="gRa7N4M2TpN5TnLLKJT--21">
          <mxGeometry width="50" height="50" relative="1" as="geometry">
            <mxPoint x="230" y="1330" as="sourcePoint" />
            <mxPoint x="270" y="1270" as="targetPoint" />
          </mxGeometry>
        </mxCell>
      </root>
    </mxGraphModel>
  </diagram>
</mxfile>
